<svg width="24" height="24" viewBox="0 0 24 24" fill="none" xmlns="http://www.w3.org/2000/svg">
<path fill-rule="evenodd" clip-rule="evenodd" d="M9.19062 3.23549C9.67111 3.03476 10.1867 2.9314 10.7074 2.9314C11.2281 2.9314 11.7437 3.03476 12.2241 3.23549C12.7046 3.43622 13.1405 3.73033 13.5065 4.10077C13.8724 4.47121 14.1612 4.9106 14.3561 5.39348C14.5504 5.87497 14.6475 6.39014 14.6418 6.9093L14.6357 15.7492L14.6356 15.7548C14.6248 16.4448 14.343 17.1027 13.8513 17.5868C13.3596 18.0708 12.6972 18.3421 12.0072 18.3421C11.3172 18.3421 10.6549 18.0708 10.1632 17.5868C9.67142 17.1027 9.3897 16.4448 9.3788 15.7548L9.37871 15.7489V9.00003C9.37871 8.58582 9.7145 8.25003 10.1287 8.25003C10.5429 8.25003 10.8787 8.58582 10.8787 9.00003V15.7363C10.8847 16.0307 11.0055 16.3111 11.2154 16.5178C11.4266 16.7256 11.711 16.8421 12.0072 16.8421C12.3035 16.8421 12.5879 16.7256 12.799 16.5178C13.009 16.3111 13.1298 16.0305 13.1357 15.7361L13.1418 6.89991L13.1419 6.89562C13.1458 6.57343 13.0857 6.25367 12.9651 5.95487C12.8445 5.65608 12.6658 5.38419 12.4394 5.15497C12.2129 4.92576 11.9432 4.74377 11.6459 4.61956C11.3486 4.49535 11.0296 4.4314 10.7074 4.4314C10.3852 4.4314 10.0662 4.49535 9.76885 4.61956C9.47154 4.74377 9.20184 4.92576 8.97539 5.15497C8.74893 5.38419 8.57023 5.65608 8.44964 5.95487C8.32905 6.25367 8.26897 6.57343 8.27287 6.89562L8.27293 6.90017V15.808L8.27285 15.8134C8.2657 16.3073 8.35681 16.7977 8.54089 17.2561C8.72496 17.7145 8.99832 18.1318 9.34508 18.4836C9.69184 18.8354 10.1051 19.1148 10.5608 19.3055C11.0165 19.4961 11.5055 19.5943 11.9995 19.5943C12.4935 19.5943 12.9825 19.4961 13.4382 19.3055C13.8939 19.1148 14.3071 18.8354 14.6539 18.4836C15.0007 18.1318 15.274 17.7145 15.4581 17.2561C15.6422 16.7977 15.7333 16.3073 15.7261 15.8134L15.7261 15.808V7.48785C15.7261 7.07363 16.0618 6.73785 16.4761 6.73785C16.8903 6.73785 17.2261 7.07363 17.2261 7.48785V15.7973C17.2353 16.4881 17.1075 17.1739 16.8501 17.8151C16.5919 18.458 16.2085 19.0431 15.7222 19.5365C15.2359 20.03 14.6563 20.4218 14.0172 20.6892C13.3782 20.9566 12.6923 21.0943 11.9995 21.0943C11.3067 21.0943 10.6208 20.9566 9.98174 20.6892C9.34265 20.4218 8.7631 20.03 8.27678 19.5365C7.79046 19.0431 7.40708 18.458 7.14892 17.8151C6.89146 17.1739 6.76368 16.4881 6.77293 15.7973V6.90903C6.76726 6.38996 6.86436 5.87489 7.05866 5.39348C7.25354 4.9106 7.54234 4.47121 7.90831 4.10077C8.27428 3.73033 8.71014 3.43622 9.19062 3.23549Z" fill="#21272A"/>
</svg>
