<svg width="24" height="24" viewBox="0 0 24 24" fill="none" xmlns="http://www.w3.org/2000/svg">
<path d="M20.6185 19.0125H20.5805L20.5426 19.0088C20.4138 18.9953 20.2875 18.9638 20.1676 18.915L17.5079 17.9723L17.4891 17.9644C17.4316 17.9395 17.3694 17.9272 17.3068 17.9283C17.2474 17.9281 17.1885 17.9388 17.1329 17.9597C17.0696 17.9836 16.4874 18.2025 15.8757 18.3703C15.5443 18.4613 14.3907 18.758 13.4649 18.758C11.0987 18.758 8.88617 17.8486 7.2357 16.1972C6.42989 15.3962 5.79086 14.4434 5.35558 13.3939C4.9203 12.3444 4.6974 11.219 4.69976 10.0828C4.70034 9.49004 4.7643 8.89903 4.89055 8.31985C5.30211 6.41719 6.39336 4.68516 7.96273 3.44485C9.57277 2.18256 11.5601 1.49765 13.606 1.50001C16.0534 1.50001 18.3338 2.43751 20.0279 4.13344C21.6291 5.73985 22.5066 7.85204 22.4996 10.0805C22.4996 11.7372 22.0045 13.3562 21.0779 14.7295L21.0521 14.7656C21.0348 14.7886 21.0184 14.8125 21.0029 14.8383C20.9809 14.8767 20.9654 14.9081 20.956 14.932L21.6934 17.5533C21.72 17.6434 21.737 17.7361 21.744 17.8298V17.8875C21.744 18.0353 21.7149 18.1816 21.6583 18.3181C21.6017 18.4547 21.5188 18.5787 21.4143 18.6832C21.3098 18.7876 21.1857 18.8705 21.0492 18.927C20.9126 18.9835 20.7663 19.0126 20.6185 19.0125ZM18.0451 16.5727L20.0574 17.2856L19.4785 15.2288C19.3848 14.8884 19.4612 14.5017 19.7082 14.0784L19.7129 14.0709C19.7529 14.0037 19.7964 13.9386 19.8432 13.8759C20.5961 12.7525 20.9981 11.4306 20.9982 10.0781C21.0043 8.25001 20.2815 6.51563 18.9638 5.19282C17.5548 3.7786 15.6545 3.00001 13.606 3.00001C10.112 3.00001 7.0632 5.37141 6.35633 8.63813C6.2528 9.1129 6.20031 9.59737 6.19976 10.0833C6.19976 14.04 9.45898 17.2594 13.4654 17.2594C14.0527 17.2594 14.9185 17.0794 15.481 16.9252C16.0351 16.7733 16.5812 16.5666 16.606 16.5581C17.0716 16.382 17.5864 16.3872 18.0484 16.5727H18.0451Z" fill="#21272A"/>
<path d="M3.36992 22.5C3.11347 22.4997 2.86466 22.4126 2.66398 22.253L2.64945 22.2412C2.49536 22.112 2.37873 21.9438 2.31171 21.7542C2.24469 21.5646 2.22971 21.3605 2.26836 21.1631C2.40242 20.4666 2.68461 18.9961 2.79054 18.4519V18.4491C2.00925 17.2851 1.5649 15.9278 1.50658 14.5272C1.44827 13.1266 1.77825 11.7371 2.46008 10.5122C2.5568 10.3381 2.7187 10.2096 2.91016 10.155C3.10162 10.1003 3.30697 10.1239 3.48101 10.2206C3.65506 10.3173 3.78356 10.4792 3.83824 10.6707C3.89292 10.8622 3.8693 11.0675 3.77258 11.2416C3.22181 12.2245 2.95508 13.3411 3.00218 14.4669C3.04928 15.5926 3.40835 16.6831 4.03929 17.6166L4.04211 17.6208C4.21508 17.8819 4.38054 18.1983 4.30039 18.5681C4.28117 18.6619 4.06601 19.7747 3.87383 20.7787L5.87492 19.9955C6.23497 19.8527 6.63675 19.8574 6.99336 20.0086C7.84883 20.3405 8.73664 20.5158 9.56211 20.5158H9.56914C10.7518 20.5142 11.9131 20.2005 12.9357 19.6064C13.0211 19.5572 13.1153 19.5252 13.213 19.5124C13.3107 19.4995 13.4099 19.5061 13.5051 19.5316C13.6003 19.5571 13.6895 19.6012 13.7676 19.6612C13.8458 19.7212 13.9114 19.796 13.9606 19.8813C14.0099 19.9667 14.0418 20.0609 14.0547 20.1586C14.0675 20.2563 14.061 20.3556 14.0354 20.4507C14.0099 20.5459 13.9659 20.6351 13.9059 20.7133C13.8459 20.7914 13.7711 20.857 13.6857 20.9062C12.4335 21.6318 11.0121 22.0142 9.56492 22.0148H9.55601C8.54351 22.0148 7.46351 21.8025 6.4332 21.4012L6.41258 21.3928L3.79226 22.4166C3.65954 22.4721 3.51706 22.5004 3.3732 22.5H3.36992ZM3.74164 21.4444C3.74164 21.4444 3.74164 21.4444 3.74164 21.4481C3.74164 21.4519 3.74117 21.4453 3.74164 21.4444ZM2.83133 18.2447C2.83133 18.2498 2.83133 18.255 2.82805 18.2602C2.82945 18.2531 2.83039 18.248 2.83133 18.2447Z" fill="#21272A"/>
</svg>
