<svg width="22" height="22" viewBox="0 0 22 22" fill="none" xmlns="http://www.w3.org/2000/svg">
<path fill-rule="evenodd" clip-rule="evenodd" d="M10.9927 2.75C6.41127 2.75 2.73619 6.37097 2.74999 10.7976L2.75 10.7987V10.7998C2.74994 12.3396 3.20002 13.8458 4.04465 15.133C4.0929 15.1989 4.13803 15.267 4.1799 15.3372L4.18322 15.3427L4.18644 15.3484C4.25423 15.4669 4.3346 15.6266 4.39 15.803C4.44069 15.9644 4.49908 16.2275 4.42278 16.5084L4.42238 16.5098L3.71229 19.0784L6.16787 18.1922C6.41201 18.0918 6.67362 18.0405 6.93773 18.0413C6.93817 18.0413 6.93861 18.0413 6.93906 18.0413L6.93644 18.7288L6.93721 18.0413C6.93738 18.0413 6.93756 18.0413 6.93773 18.0413C7.185 18.0416 7.43012 18.0873 7.66092 18.176L7.66142 18.1762L7.66192 18.1764C7.80128 18.2302 8.35643 18.4365 8.90537 18.5901C9.44501 18.7411 10.4416 18.9243 11.1465 18.9243C15.7051 18.9243 19.2499 15.2642 19.25 10.8064L19.9375 10.8062H19.25C19.2498 10.2532 19.1912 9.7018 19.0753 9.16109L19.0752 9.16037L19.075 9.15965C18.3019 5.51463 14.9851 2.75 10.9927 2.75ZM1.375 10.8008C1.35932 5.5815 5.68308 1.375 10.9927 1.375C15.6264 1.375 19.51 4.58597 20.4199 8.87334C20.556 9.50854 20.6248 10.1563 20.625 10.806V10.8062C20.625 16.0086 16.4793 20.2993 11.1465 20.2993C10.2788 20.2993 9.15271 20.0872 8.53478 19.9142C7.92691 19.7441 7.32694 19.521 7.16719 19.4593C7.09329 19.431 7.01482 19.4164 6.93567 19.4163H6.93475L6.93383 19.4163C6.84835 19.416 6.7637 19.433 6.68499 19.4663L6.66785 19.4736L3.752 20.5259C3.63094 20.5755 3.50338 20.6077 3.37317 20.6213L3.3365 20.6251L3.29964 20.625C3.15411 20.6246 3.01012 20.5952 2.87601 20.5388C2.74189 20.4823 2.62032 20.3997 2.51833 20.2959C2.41633 20.1921 2.33595 20.0691 2.28184 19.934C2.22773 19.799 2.20095 19.6545 2.20308 19.509L2.20338 19.4883L2.20492 19.4677C2.21196 19.3736 2.2287 19.2806 2.25488 19.1899L3.07771 16.2136C3.06271 16.1664 3.03407 16.1038 2.99604 16.0366C2.97535 16.0023 2.95301 15.9691 2.9291 15.937L2.91734 15.9212L2.90651 15.9048C1.90764 14.3899 1.37515 12.6153 1.375 10.8008Z" fill="#21272A"/>
</svg>
