<svg width="19" height="18" viewBox="0 0 19 18" fill="none" xmlns="http://www.w3.org/2000/svg">
<g clip-path="url(#clip0_45_1102)">
<path d="M11.0743 10.59C10.8589 10.811 10.5991 10.9884 10.3105 11.1113C10.0219 11.2343 9.71033 11.3004 9.39441 11.3058C9.07848 11.3111 8.76467 11.2555 8.47169 11.1424C8.17872 11.0292 7.91258 10.8608 7.68915 10.6471C7.46572 10.4334 7.28959 10.1789 7.17125 9.89878C7.05291 9.61862 6.99479 9.31853 7.00037 9.01642C7.00594 8.71431 7.07509 8.41637 7.20369 8.14037C7.33229 7.86438 7.51771 7.61597 7.74888 7.40999M14.0703 13.455C12.7296 14.4322 11.0971 14.9736 9.41159 15C3.9215 15 0.784302 8.99999 0.784302 8.99999C1.75988 7.26141 3.11299 5.74244 4.75285 4.54499L14.0703 13.455ZM7.76456 3.17999C8.30442 3.05915 8.85714 2.99874 9.41159 2.99999C14.9017 2.99999 18.0389 8.99999 18.0389 8.99999C17.5628 9.85169 16.995 10.6535 16.3448 11.3925L7.76456 3.17999Z" stroke="#989898" stroke-width="2" stroke-linecap="round" stroke-linejoin="round"/>
<path d="M0.784302 0.75L18.0389 17.25" stroke="#989898" stroke-width="2" stroke-linecap="round" stroke-linejoin="round"/>
</g>
<defs>
<clipPath id="clip0_45_1102">
<rect width="18.8232" height="18" fill="white"/>
</clipPath>
</defs>
</svg>
