<svg width="22" height="22" viewBox="0 0 22 22" fill="none" xmlns="http://www.w3.org/2000/svg">
<path fill-rule="evenodd" clip-rule="evenodd" d="M2.06254 7.59026C2.08934 4.97602 4.16615 2.75 6.83547 2.75C8.47391 2.75 9.6791 3.56102 10.4482 4.32463C10.6623 4.53724 10.8461 4.74932 11 4.94488C11.1539 4.74932 11.3377 4.53724 11.5518 4.32463C12.3209 3.56102 13.5261 2.75 15.1645 2.75C17.8338 2.75 19.9107 4.97602 19.9375 7.59026L19.9375 7.59045C19.9883 12.6892 15.8914 16.2166 11.7734 19.0119C11.5454 19.1671 11.2759 19.2501 11 19.2501C10.7241 19.2501 10.4546 19.1671 10.2266 19.0119C6.10815 16.2166 2.01123 12.6892 2.06253 7.59039L2.06254 7.59026ZM11.6141 6.49665C11.4973 6.72859 11.2598 6.875 11 6.875C10.7402 6.875 10.5027 6.7286 10.3859 6.49668C10.3858 6.4964 10.3855 6.49585 10.3851 6.49504C10.3843 6.49341 10.3829 6.49074 10.3809 6.48706C10.3799 6.48511 10.3787 6.48288 10.3774 6.48037C10.3697 6.46589 10.3568 6.4423 10.3388 6.41089C10.3028 6.34799 10.2466 6.25431 10.1702 6.14012C10.0166 5.9106 9.78585 5.60462 9.47942 5.30037C8.86363 4.68898 7.98656 4.125 6.83547 4.125C4.97077 4.125 3.45714 5.69219 3.43746 7.60422M11.6141 6.49665C11.6142 6.49636 11.6145 6.49582 11.6149 6.49504C11.6162 6.49255 11.6188 6.48761 11.6226 6.48037C11.6303 6.46589 11.6432 6.4423 11.6612 6.41089C11.6972 6.34799 11.7534 6.25431 11.8298 6.14012C11.9834 5.9106 12.2142 5.60462 12.5206 5.30037C13.1364 4.68898 14.0134 4.125 15.1645 4.125C17.0292 4.125 18.5428 5.69216 18.5625 7.60416C18.6054 11.9007 15.1547 15.0549 11.0006 17.8746L11 17.8751L10.9994 17.8746C6.84483 15.0549 3.39431 11.9008 3.43746 7.60435" fill="#21272A"/>
</svg>
