<svg width="16" height="16" viewBox="0 0 16 16" fill="none" xmlns="http://www.w3.org/2000/svg">
<path fill-rule="evenodd" clip-rule="evenodd" d="M6.149 2.51734C6.37263 1.76628 7.0285 1 8 1C8.97173 1 9.62697 1.76631 9.8523 2.51596C9.85342 2.51736 9.85493 2.51912 9.85688 2.52115C9.8615 2.52596 9.86673 2.5304 9.87168 2.53383C9.87544 2.53644 9.87772 2.53757 9.87798 2.5377C10.4435 2.77054 11.1091 3.14247 11.6297 3.82343C12.1545 4.50986 12.4959 5.46275 12.4959 6.79219C12.4959 8.1177 12.6358 8.84456 12.8417 9.34355C13.0223 9.78106 13.2597 10.0687 13.5976 10.4779C13.6469 10.5377 13.6984 10.6 13.7522 10.6658L13.7523 10.666C14.375 11.4288 13.787 12.5 12.8278 12.5H3.17531C2.21787 12.5 1.61995 11.4342 2.2478 10.6658C2.30161 10.6 2.35314 10.5376 2.40252 10.4778C2.74033 10.0686 2.9778 9.78096 3.15853 9.34342C3.36465 8.84438 3.50484 8.11752 3.50562 6.79219M6.149 2.51734C6.14813 2.51836 6.14705 2.51958 6.14573 2.52094C6.14148 2.52536 6.13645 2.52962 6.13143 2.53307C6.12677 2.53628 6.12397 2.53754 6.12397 2.53754L6.12367 2.53767C5.55791 2.77065 4.89204 3.14187 4.37139 3.82266C3.84662 4.50883 3.50567 5.46159 3.50562 6.7919M8 2C7.61504 2 7.2474 2.32101 7.10512 2.81049L7.10476 2.81174C7.01302 3.12432 6.75902 3.35762 6.50445 3.46233C6.50441 3.46235 6.50437 3.46236 6.50433 3.46238C6.02669 3.65909 5.53839 3.94285 5.16571 4.43015C4.79716 4.91206 4.50562 5.64046 4.50562 6.79219V6.79248C4.50482 8.17478 4.36095 9.05175 4.08279 9.72518C3.8408 10.311 3.503 10.7182 3.16784 11.1221C3.11913 11.1808 3.07048 11.2394 3.02219 11.2985L3.02216 11.2986C3.00226 11.3229 2.99669 11.3429 2.99533 11.358C2.99379 11.375 2.99699 11.3953 3.0077 11.4163C3.02628 11.4527 3.07254 11.5 3.17531 11.5H12.8278C12.9268 11.5 12.9724 11.4543 12.9913 11.4169C13.0116 11.3768 13.0091 11.337 12.9778 11.2985C12.9295 11.2395 12.8809 11.1809 12.8322 11.1222C12.497 10.7182 12.1592 10.311 11.9173 9.72505C11.6394 9.05153 11.4959 8.17449 11.4959 6.79219C11.4959 5.64193 11.2042 4.91327 10.8353 4.43079C10.4623 3.94289 9.97378 3.65858 9.49715 3.46235C9.23972 3.35647 8.98841 3.11991 8.89721 2.81254L8.89684 2.81127C8.75272 2.32077 8.38496 2 8 2Z" fill="#F9F9F9"/>
<path fill-rule="evenodd" clip-rule="evenodd" d="M6 11.5C6.27614 11.5 6.5 11.7239 6.5 12V12.5C6.5 12.8978 6.65804 13.2794 6.93934 13.5607C7.22064 13.842 7.60218 14 8 14C8.39782 14 8.77936 13.842 9.06066 13.5607C9.34196 13.2794 9.5 12.8978 9.5 12.5V12C9.5 11.7239 9.72386 11.5 10 11.5C10.2761 11.5 10.5 11.7239 10.5 12V12.5C10.5 13.163 10.2366 13.7989 9.76777 14.2678C9.29893 14.7366 8.66304 15 8 15C7.33696 15 6.70107 14.7366 6.23223 14.2678C5.76339 13.7989 5.5 13.163 5.5 12.5V12C5.5 11.7239 5.72386 11.5 6 11.5Z" fill="#F9F9F9"/>
</svg>
