<svg width="24" height="24" viewBox="0 0 24 24" fill="none" xmlns="http://www.w3.org/2000/svg">
<path d="M15.75 12C14.7844 12 13.8563 11.5687 13.125 10.7906C12.4172 10.0312 11.9813 9.01406 11.9063 7.93125C11.8266 6.77812 12.1782 5.71406 12.8953 4.94063C13.6125 4.17188 14.625 3.75 15.75 3.75C16.8657 3.75 17.8782 4.17656 18.5954 4.94531C19.3219 5.72344 19.6735 6.78281 19.5891 7.92656C19.5094 9.00938 19.0782 10.0266 18.3703 10.7859C17.6438 11.5688 16.7157 12 15.75 12ZM15.75 5.25C15.0469 5.25 14.4235 5.50312 13.9969 5.9625C13.5563 6.43594 13.3547 7.07812 13.4063 7.82344C13.4578 8.56406 13.7485 9.25781 14.2266 9.76875C14.6672 10.2422 15.211 10.5 15.75 10.5C16.2938 10.5 16.8328 10.2375 17.2735 9.76875C17.7516 9.25781 18.0422 8.56875 18.0938 7.82344C18.1453 7.10156 17.9344 6.44063 17.4938 5.97188C17.0672 5.50313 16.4438 5.25 15.75 5.25Z" fill="#21272A"/>
<path d="M21.9282 20.25H9.57191C9.1641 20.25 8.7891 20.0672 8.54066 19.7485C8.28285 19.4157 8.1891 18.9657 8.29222 18.5391C8.68597 16.9547 9.66566 15.6422 11.1188 14.7375C12.4078 13.936 14.0532 13.4954 15.7453 13.4954C17.4703 13.4954 19.0735 13.9172 20.3719 14.7188C21.8297 15.6141 22.8094 16.936 23.2032 18.5391C23.3063 18.9657 23.2125 19.4157 22.9547 19.7485C22.711 20.0672 22.336 20.25 21.9282 20.25ZM9.79222 18.75H21.7125C20.9391 15.9844 18.0375 15 15.75 15C13.4719 15 10.575 15.9844 9.79222 18.75Z" fill="#21272A"/>
<path d="M6.89066 12.1875C5.24066 12.1875 3.79222 10.6546 3.65629 8.77026C3.58597 7.80464 3.88597 6.91401 4.49535 6.25776C5.10004 5.61089 5.94847 5.25464 6.88597 5.25464C7.81879 5.25464 8.66722 5.61558 9.27191 6.26714C9.88597 6.92808 10.186 7.8187 10.1157 8.77495C9.9891 10.6546 8.53597 12.1875 6.89066 12.1875ZM6.89066 6.74995C6.37504 6.74995 5.91566 6.93745 5.59691 7.27964C5.26879 7.6312 5.1141 8.10933 5.15629 8.66245C5.23597 9.75933 6.02816 10.6875 6.89066 10.6875C7.75316 10.6875 8.55004 9.75933 8.62504 8.66245C8.66254 8.12339 8.50316 7.63589 8.17972 7.28433C7.86097 6.93745 7.4016 6.74995 6.89066 6.74995Z" fill="#21272A"/>
<path d="M7.21879 18.75H1.95472C1.58441 18.75 1.24222 18.5812 1.01254 18.2953C0.778161 17.9953 0.693786 17.5828 0.787536 17.1984C1.11097 15.8906 1.91722 14.8125 3.11254 14.0718C4.16722 13.4203 5.50785 13.0593 6.88597 13.0593C8.06722 13.0593 9.07504 13.2562 9.96566 13.664C10.3407 13.8375 10.5094 14.2828 10.336 14.6578C10.1625 15.0328 9.71722 15.2015 9.34222 15.0281C8.65316 14.714 7.8516 14.5593 6.89066 14.5593C5.17972 14.5593 3.01879 15.2718 2.33441 17.2546H7.21879C7.63129 17.2546 7.96879 17.5921 7.96879 18.0046C7.96879 18.4171 7.63129 18.75 7.21879 18.75Z" fill="#21272A"/>
</svg>
