<svg width="24" height="24" viewBox="0 0 24 24" fill="none" xmlns="http://www.w3.org/2000/svg">
<path d="M12.1359 2.25005C6.65243 2.17599 2.17587 6.65255 2.24993 12.136C2.32305 17.3949 6.60509 21.6769 11.864 21.7501C17.3484 21.8251 21.824 17.3485 21.749 11.8651C21.6768 6.60521 17.3948 2.32318 12.1359 2.25005ZM18.0618 17.5899C18.0431 17.6101 18.0202 17.6259 17.9948 17.6363C17.9693 17.6466 17.9418 17.6513 17.9144 17.6498C17.8869 17.6484 17.8601 17.641 17.8358 17.628C17.8116 17.6151 17.7905 17.5969 17.774 17.5749C17.3547 17.0263 16.8413 16.5567 16.2576 16.1879C15.0641 15.4219 13.552 15.0001 11.9999 15.0001C10.4479 15.0001 8.93571 15.4219 7.74227 16.1879C7.15862 16.5565 6.64516 17.026 6.22587 17.5744C6.20939 17.5965 6.18828 17.6146 6.16402 17.6275C6.13976 17.6405 6.11294 17.6479 6.08548 17.6494C6.05801 17.6508 6.03057 17.6462 6.00509 17.6358C5.97961 17.6255 5.95673 17.6096 5.93805 17.5894C4.56259 16.1046 3.78344 14.1644 3.74993 12.1407C3.67352 7.57927 7.41649 3.7613 11.9798 3.75005C16.5431 3.7388 20.2499 7.44427 20.2499 12.0001C20.2515 14.0726 19.4699 16.0692 18.0618 17.5899Z" fill="#21272A"/>
<path d="M12 6.75C11.0756 6.75 10.2398 7.09641 9.6459 7.72594C9.05199 8.35547 8.75527 9.22594 8.82231 10.1602C8.95824 12 10.3837 13.5 12 13.5C13.6162 13.5 15.0389 12 15.1776 10.1606C15.247 9.23531 14.9526 8.37281 14.3489 7.73156C13.7526 7.09875 12.9182 6.75 12 6.75Z" fill="#21272A"/>
</svg>
