<svg width="18" height="18" viewBox="0 0 18 18" fill="none" xmlns="http://www.w3.org/2000/svg">
<path fill-rule="evenodd" clip-rule="evenodd" d="M13.6648 7.47725C13.8844 7.25758 14.2406 7.25758 14.4602 7.47725L16.7102 9.72725C16.9299 9.94692 16.9299 10.3031 16.7102 10.5227L14.4602 12.7727C14.2406 12.9924 13.8844 12.9924 13.6648 12.7727C13.4451 12.5531 13.4451 12.1969 13.6648 11.9773L15.517 10.125L13.6648 8.27275C13.4451 8.05308 13.4451 7.69692 13.6648 7.47725Z" fill="#848789"/>
<path fill-rule="evenodd" clip-rule="evenodd" d="M1.6875 5.0625C1.99816 5.0625 2.25 5.31434 2.25 5.625V6.32812C2.25 8.09414 3.67282 9.5625 5.41406 9.5625H15.75C16.0607 9.5625 16.3125 9.81434 16.3125 10.125C16.3125 10.4357 16.0607 10.6875 15.75 10.6875H5.41406C3.02375 10.6875 1.125 8.68734 1.125 6.32812V5.625C1.125 5.31434 1.37684 5.0625 1.6875 5.0625Z" fill="#848789"/>
</svg>
