<svg width="22" height="22" viewBox="0 0 22 22" fill="none" xmlns="http://www.w3.org/2000/svg">
<path fill-rule="evenodd" clip-rule="evenodd" d="M5.29864 6.38886C5.56712 6.65735 5.56712 7.09265 5.29864 7.36114L3.03477 9.625L5.29864 11.8889C5.56712 12.1573 5.56712 12.5927 5.29864 12.8611C5.03015 13.1296 4.59485 13.1296 4.32636 12.8611L1.57636 10.1111C1.30788 9.84265 1.30788 9.40735 1.57636 9.13886L4.32636 6.38886C4.59485 6.12038 5.03015 6.12038 5.29864 6.38886Z" fill="#21272A"/>
<path fill-rule="evenodd" clip-rule="evenodd" d="M2.0625 9.625C2.0625 9.2453 2.3703 8.9375 2.75 8.9375H15.3828C18.3043 8.9375 20.625 11.3821 20.625 14.2656V15.125C20.625 15.5047 20.3172 15.8125 19.9375 15.8125C19.5578 15.8125 19.25 15.5047 19.25 15.125V14.2656C19.25 12.1072 17.511 10.3125 15.3828 10.3125H2.75C2.3703 10.3125 2.0625 10.0047 2.0625 9.625Z" fill="#21272A"/>
</svg>
