<svg width="16" height="16" viewBox="0 0 16 16" fill="none" xmlns="http://www.w3.org/2000/svg">
<path fill-rule="evenodd" clip-rule="evenodd" d="M7.75193 1.56588C7.90565 1.47804 8.09435 1.47804 8.24807 1.56588L15.2481 5.56588C15.4039 5.6549 15.5 5.82057 15.5 6C15.5 6.17943 15.4039 6.3451 15.2481 6.43412L8.24807 10.4341C8.09435 10.522 7.90565 10.522 7.75193 10.4341L0.751931 6.43412C0.596143 6.3451 0.5 6.17943 0.5 6C0.5 5.82057 0.596143 5.6549 0.751931 5.56588L7.75193 1.56588ZM2.00778 6L8 9.42412L13.9922 6L8 2.57588L2.00778 6Z" fill="#21272A"/>
<path fill-rule="evenodd" clip-rule="evenodd" d="M3.5 7C3.77614 7 4 7.22386 4 7.5V11.2058L8 13.428L12 11.2058V7.5C12 7.22386 12.2239 7 12.5 7C12.7761 7 13 7.22386 13 7.5V11.5C13 11.6816 12.9016 11.8489 12.7428 11.9371L8.24282 14.4371C8.09181 14.521 7.90819 14.521 7.75718 14.4371L3.25718 11.9371C3.09845 11.8489 3 11.6816 3 11.5V7.5C3 7.22386 3.22386 7 3.5 7Z" fill="#21272A"/>
<path fill-rule="evenodd" clip-rule="evenodd" d="M15 5.5C15.2761 5.5 15.5 5.72386 15.5 6V11.5C15.5 11.7761 15.2761 12 15 12C14.7239 12 14.5 11.7761 14.5 11.5V6C14.5 5.72386 14.7239 5.5 15 5.5Z" fill="#21272A"/>
<path fill-rule="evenodd" clip-rule="evenodd" d="M8 9.5C8.27614 9.5 8.5 9.72386 8.5 10V14C8.5 14.2761 8.27614 14.5 8 14.5C7.72386 14.5 7.5 14.2761 7.5 14V10C7.5 9.72386 7.72386 9.5 8 9.5Z" fill="#21272A"/>
</svg>
